<?xml version="1.0" encoding="UTF-8" standalone="no"?>
<!-- Created with Inkscape (http://www.inkscape.org/) -->

<svg
   xmlns:dc="http://purl.org/dc/elements/1.1/"
   xmlns:cc="http://creativecommons.org/ns#"
   xmlns:rdf="http://www.w3.org/1999/02/22-rdf-syntax-ns#"
   xmlns:svg="http://www.w3.org/2000/svg"
   xmlns="http://www.w3.org/2000/svg"
   xmlns:sodipodi="http://sodipodi.sourceforge.net/DTD/sodipodi-0.dtd"
   xmlns:inkscape="http://www.inkscape.org/namespaces/inkscape"
   width="100mm"
   height="100mm"
   viewBox="0 0 100 100"
   version="1.1"
   id="svg8"
   inkscape:version="0.92.2 (5c3e80d, 2017-08-06)"
   sodipodi:docname="Failed.svg">
  <defs
     id="defs2" />
  <sodipodi:namedview
     id="base"
     pagecolor="#ffffff"
     bordercolor="#666666"
     borderopacity="1.0"
     inkscape:pageopacity="0.0"
     inkscape:pageshadow="2"
     inkscape:zoom="1.979899"
     inkscape:cx="129.17376"
     inkscape:cy="223.71735"
     inkscape:document-units="mm"
     inkscape:current-layer="layer1"
     showgrid="false"
     inkscape:pagecheckerboard="true"
     inkscape:window-width="1920"
     inkscape:window-height="1137"
     inkscape:window-x="1912"
     inkscape:window-y="-8"
     inkscape:window-maximized="1" />
  <metadata
     id="metadata5">
    <rdf:RDF>
      <cc:Work
         rdf:about="">
        <dc:format>image/svg+xml</dc:format>
        <dc:type
           rdf:resource="http://purl.org/dc/dcmitype/StillImage" />
        <dc:title />
      </cc:Work>
    </rdf:RDF>
  </metadata>
  <g
     inkscape:label="Ebene 1"
     inkscape:groupmode="layer"
     id="layer1"
     transform="translate(0,-197)">
    <rect
       style="opacity:1;fill:#008080;fill-opacity:1;stroke-width:2.23066831"
       id="rect816"
       width="100"
       height="100"
       x="0"
       y="197"
       ry="23.469044" />
    <path
       style="opacity:1;fill:#ff0000;fill-opacity:0.9818184;stroke-width:0.50507629"
       d="M 93.690751,284.16489 66.544643,257.01529 100.63713,222.92561 134.72962,188.83592 100.63678,154.74031 66.543937,120.6447 93.693542,93.498588 120.84315,66.352474 l 34.08968,34.092486 34.08969,34.0925 34.09561,-34.09285 34.09561,-34.092842 27.14611,27.149605 27.14612,27.149607 -34.0925,34.08968 -34.09249,34.08969 34.09285,34.09561 34.09284,34.09561 -27.14961,27.14611 -27.14961,27.14613 -33.83712,-33.83995 c -18.61042,-18.61197 -34.06442,-33.83995 -34.34222,-33.83995 -0.27781,0 -15.73448,15.22813 -34.34817,33.84029 l -33.84308,33.84029 z"
       id="path816"
       inkscape:connector-curvature="0"
       transform="matrix(0.26458333,0,0,0.26458333,0,197)" />
  </g>
</svg>
