<?xml version="1.0" encoding="UTF-8" standalone="no"?>
<!-- Created with Inkscape (http://www.inkscape.org/) -->

<svg
   xmlns:dc="http://purl.org/dc/elements/1.1/"
   xmlns:cc="http://creativecommons.org/ns#"
   xmlns:rdf="http://www.w3.org/1999/02/22-rdf-syntax-ns#"
   xmlns:svg="http://www.w3.org/2000/svg"
   xmlns="http://www.w3.org/2000/svg"
   xmlns:sodipodi="http://sodipodi.sourceforge.net/DTD/sodipodi-0.dtd"
   xmlns:inkscape="http://www.inkscape.org/namespaces/inkscape"
   width="100mm"
   height="100mm"
   viewBox="0 0 100 100"
   version="1.1"
   id="svg8"
   inkscape:version="0.92.2 (5c3e80d, 2017-08-06)"
   sodipodi:docname="Failed.svg">
  <defs
     id="defs2" />
  <sodipodi:namedview
     id="base"
     pagecolor="#ffffff"
     bordercolor="#666666"
     borderopacity="1.0"
     inkscape:pageopacity="0.0"
     inkscape:pageshadow="2"
     inkscape:zoom="1.979899"
     inkscape:cx="186.75246"
     inkscape:cy="189.37216"
     inkscape:document-units="mm"
     inkscape:current-layer="layer1"
     showgrid="false"
     inkscape:pagecheckerboard="true"
     inkscape:window-width="1920"
     inkscape:window-height="1137"
     inkscape:window-x="1912"
     inkscape:window-y="-8"
     inkscape:window-maximized="1" />
  <metadata
     id="metadata5">
    <rdf:RDF>
      <cc:Work
         rdf:about="">
        <dc:format>image/svg+xml</dc:format>
        <dc:type
           rdf:resource="http://purl.org/dc/dcmitype/StillImage" />
        <dc:title></dc:title>
      </cc:Work>
    </rdf:RDF>
  </metadata>
  <g
     inkscape:label="Ebene 1"
     inkscape:groupmode="layer"
     id="layer1"
     transform="translate(0,-197)">
    <path
       style="fill:#ffffff;stroke-width:1.09406006"
       d="M 188.97656 0 A 188.97638 188.97638 0 0 0 0 188.97656 A 188.97638 188.97638 0 0 0 188.97656 377.95312 A 188.97638 188.97638 0 0 0 377.95312 188.97656 A 188.97638 188.97638 0 0 0 188.97656 0 z M 120.73828 66.146484 L 188.97656 134.38477 L 257.21484 66.146484 L 311.80664 120.73828 L 243.56836 188.97656 L 311.80664 257.21484 L 257.21484 311.80664 L 188.97656 243.56836 L 120.73828 311.80664 L 66.146484 257.21484 L 134.38477 188.97656 L 66.146484 120.73828 L 120.73828 66.146484 z "
       transform="matrix(0.26458333,0,0,0.26458333,0,197)"
       id="path3814" />
  </g>
</svg>
