<?xml version="1.0" encoding="UTF-8" standalone="no"?>
<!-- Created with Inkscape (http://www.inkscape.org/) -->

<svg
   xmlns:dc="http://purl.org/dc/elements/1.1/"
   xmlns:cc="http://creativecommons.org/ns#"
   xmlns:rdf="http://www.w3.org/1999/02/22-rdf-syntax-ns#"
   xmlns:svg="http://www.w3.org/2000/svg"
   xmlns="http://www.w3.org/2000/svg"
   xmlns:sodipodi="http://sodipodi.sourceforge.net/DTD/sodipodi-0.dtd"
   xmlns:inkscape="http://www.inkscape.org/namespaces/inkscape"
   width="100mm"
   height="100mm"
   viewBox="0 0 100 100"
   version="1.1"
   id="svg8"
   inkscape:version="0.92.2 (5c3e80d, 2017-08-06)"
   sodipodi:docname="None.svg">
  <defs
     id="defs2" />
  <sodipodi:namedview
     id="base"
     pagecolor="#ffffff"
     bordercolor="#666666"
     borderopacity="1.0"
     inkscape:pageopacity="0.0"
     inkscape:pageshadow="2"
     inkscape:zoom="1.979899"
     inkscape:cx="178.4187"
     inkscape:cy="182.80617"
     inkscape:document-units="mm"
     inkscape:current-layer="layer1"
     showgrid="false"
     inkscape:pagecheckerboard="true"
     inkscape:window-width="1920"
     inkscape:window-height="1137"
     inkscape:window-x="1912"
     inkscape:window-y="-8"
     inkscape:window-maximized="1" />
  <metadata
     id="metadata5">
    <rdf:RDF>
      <cc:Work
         rdf:about="">
        <dc:format>image/svg+xml</dc:format>
        <dc:type
           rdf:resource="http://purl.org/dc/dcmitype/StillImage" />
        <dc:title />
      </cc:Work>
    </rdf:RDF>
  </metadata>
  <g
     inkscape:label="Ebene 1"
     inkscape:groupmode="layer"
     id="layer1"
     transform="translate(0,-197)">
    <rect
       style="opacity:1;fill:#008080;fill-opacity:1;stroke-width:2.23066831"
       id="rect816"
       width="100"
       height="100"
       x="0"
       y="197"
       ry="23.469044" />
    <path
       style="opacity:1;fill:#ff0000;fill-opacity:0.9818184;stroke-width:0.50507629"
       d="m 174.37809,358.22072 c -6.94396,-0.56306 -19.45121,-2.67473 -26.72973,-4.51295 C 85.789738,338.08518 37.499602,288.8095 23.441872,226.96639 20.665789,214.75377 19.771327,207.18155 19.4645,193.29527 19.182004,180.51013 19.577121,173.21942 21.103582,163.05085 25.292417,135.14679 37.385861,107.3423 55.472783,84.031318 60.952528,76.968852 75.286232,62.427861 82.25923,56.857494 c 24.31022,-19.420171 51.15824,-31.146745 82.52241,-36.04382 6.49113,-1.013498 9.21822,-1.145247 23.99112,-1.159039 17.73723,-0.01656 21.30369,0.292669 34.67995,3.006907 55.19967,11.200806 102.39083,50.821966 123.32485,103.542138 7.58133,19.09281 11.232,37.17241 11.77937,58.33631 0.73311,28.34519 -4.76841,53.90791 -17.00351,79.0065 -20.14479,41.32419 -56.54887,72.82147 -100.67284,87.10344 -20.88322,6.75944 -44.02212,9.39362 -66.50249,7.57079 z"
       id="path816"
       inkscape:connector-curvature="0"
       transform="matrix(0.26458333,0,0,0.26458333,0,197)" />
  </g>
</svg>
