<?xml version="1.0" encoding="UTF-8" standalone="no"?>
<!-- Created with Inkscape (http://www.inkscape.org/) -->

<svg
   xmlns:dc="http://purl.org/dc/elements/1.1/"
   xmlns:cc="http://creativecommons.org/ns#"
   xmlns:rdf="http://www.w3.org/1999/02/22-rdf-syntax-ns#"
   xmlns:svg="http://www.w3.org/2000/svg"
   xmlns="http://www.w3.org/2000/svg"
   xmlns:sodipodi="http://sodipodi.sourceforge.net/DTD/sodipodi-0.dtd"
   xmlns:inkscape="http://www.inkscape.org/namespaces/inkscape"
   width="100mm"
   height="100mm"
   viewBox="0 0 100 100"
   version="1.1"
   id="svg8"
   inkscape:version="0.92.2 (5c3e80d, 2017-08-06)"
   sodipodi:docname="Play - Kopie.svg">
  <defs
     id="defs2" />
  <sodipodi:namedview
     id="base"
     pagecolor="#ffffff"
     bordercolor="#666666"
     borderopacity="1.0"
     inkscape:pageopacity="0.0"
     inkscape:pageshadow="2"
     inkscape:zoom="1.4"
     inkscape:cx="255.98475"
     inkscape:cy="65.874252"
     inkscape:document-units="mm"
     inkscape:current-layer="layer1"
     showgrid="false"
     inkscape:pagecheckerboard="true"
     inkscape:window-width="1920"
     inkscape:window-height="1137"
     inkscape:window-x="1912"
     inkscape:window-y="-8"
     inkscape:window-maximized="1" />
  <metadata
     id="metadata5">
    <rdf:RDF>
      <cc:Work
         rdf:about="">
        <dc:format>image/svg+xml</dc:format>
        <dc:type
           rdf:resource="http://purl.org/dc/dcmitype/StillImage" />
        <dc:title></dc:title>
      </cc:Work>
    </rdf:RDF>
  </metadata>
  <g
     inkscape:label="Ebene 1"
     inkscape:groupmode="layer"
     id="layer1"
     transform="translate(0,-197)">
    <path
       style="opacity:1;fill:#147ec9;fill-opacity:1;stroke-width:0.18487845"
       d="m 10.27139,296.50842 c -1.4586061,-0.55136 -2.7118222,-1.91796 -2.9998933,-3.27129 -0.078677,-0.36959 -0.1430416,-21.30442 -0.1430416,-46.52184 0,-38.54777 0.040701,-45.96515 0.2555599,-46.57382 0.6558448,-1.85793 2.720385,-3.1066 4.483241,-2.71154 0.446511,0.10002 2.599574,1.21342 4.784586,2.47412 2.185011,1.2607 11.293932,6.51905 20.242049,11.68522 8.948121,5.16618 24.256055,13.92343 34.017638,19.46057 9.76158,5.53713 18.325837,10.40408 19.031682,10.81544 2.691327,1.56848 3.878547,3.19427 3.879199,5.3122 7.32e-4,1.93266 -0.930472,3.35851 -3.179817,4.86963 -0.683767,0.45935 -9.687541,5.69689 -20.008384,11.63897 -10.320839,5.94207 -27.079389,15.60488 -37.241218,21.47292 -10.161831,5.86801 -18.814145,10.84245 -19.227361,11.0543 -0.882379,0.45238 -3.044714,0.61625 -3.89424,0.29512 z"
       id="path816"
       inkscape:connector-curvature="0" />
  </g>
</svg>
