<?xml version="1.0" encoding="UTF-8" standalone="no"?>
<!-- Created with Inkscape (http://www.inkscape.org/) -->

<svg
   xmlns:dc="http://purl.org/dc/elements/1.1/"
   xmlns:cc="http://creativecommons.org/ns#"
   xmlns:rdf="http://www.w3.org/1999/02/22-rdf-syntax-ns#"
   xmlns:svg="http://www.w3.org/2000/svg"
   xmlns="http://www.w3.org/2000/svg"
   xmlns:sodipodi="http://sodipodi.sourceforge.net/DTD/sodipodi-0.dtd"
   xmlns:inkscape="http://www.inkscape.org/namespaces/inkscape"
   width="100mm"
   height="100mm"
   viewBox="0 0 100 100"
   version="1.1"
   id="svg8"
   inkscape:version="0.92.2 (5c3e80d, 2017-08-06)"
   sodipodi:docname="Play.svg">
  <defs
     id="defs2" />
  <sodipodi:namedview
     id="base"
     pagecolor="#ffffff"
     bordercolor="#666666"
     borderopacity="1.0"
     inkscape:pageopacity="0.0"
     inkscape:pageshadow="2"
     inkscape:zoom="1.4"
     inkscape:cx="79.684189"
     inkscape:cy="176.03948"
     inkscape:document-units="mm"
     inkscape:current-layer="layer1"
     showgrid="false"
     inkscape:pagecheckerboard="true"
     inkscape:window-width="1920"
     inkscape:window-height="1137"
     inkscape:window-x="1912"
     inkscape:window-y="-8"
     inkscape:window-maximized="1" />
  <metadata
     id="metadata5">
    <rdf:RDF>
      <cc:Work
         rdf:about="">
        <dc:format>image/svg+xml</dc:format>
        <dc:type
           rdf:resource="http://purl.org/dc/dcmitype/StillImage" />
        <dc:title />
      </cc:Work>
    </rdf:RDF>
  </metadata>
  <g
     inkscape:label="Ebene 1"
     inkscape:groupmode="layer"
     id="layer1"
     transform="translate(0,-197)">
    <rect
       style="opacity:1;fill:#008080;fill-opacity:1;stroke-width:2.23066831"
       id="rect816"
       width="100"
       height="100"
       x="-2.220446e-016"
       y="197"
       ry="23.469044" />
    <path
       style="opacity:1;fill:#ff0000;fill-opacity:0.9818184;stroke-width:0.71428573"
       d="m 108.74405,323.02127 c -3.55937,-1.26943 -5.39429,-2.96362 -7.00219,-6.46513 -1.25724,-2.73787 -1.31266,-8.12862 -1.3277,-129.1356 -0.0154,-124.22034 0.007,-126.323386 1.39068,-129.035164 3.0687,-6.015151 9.48655,-7.394575 16.39302,-3.523447 2.19248,1.2289 26.96847,15.495953 55.05776,31.70456 28.08929,16.208611 74.69643,42.874501 103.57143,59.257551 30.70548,17.42162 53.63641,30.87302 55.23744,32.40258 3.73011,3.56357 4.76256,5.7996 4.76256,10.31445 0,4.90424 -2.75405,9.30922 -8.05354,12.88128 -2.0527,1.38359 -31.0536,18.24798 -64.44646,37.47642 -33.39286,19.22843 -79.51786,45.82928 -102.5,59.11298 -22.98214,13.28371 -42.91072,24.56383 -44.28572,25.06694 -3.1965,1.16959 -5.39713,1.15523 -8.79728,-0.0574 z"
       id="path816"
       inkscape:connector-curvature="0"
       transform="matrix(0.26458333,0,0,0.26458333,0,197)" />
  </g>
</svg>
